PathFileType	4	(X/Y/Z)	/tmp/tmpyk0b9w69//results/MarkerData/Run_5.trc
DataRate	CameraRate	NumFrames	NumMarkers	Units	OrigDataRate	OrigDataStartFrame	OrigNumFrames
120.005	120.005	9	42	m	120.005	82	656
Frame#	Time	C7			CLAV			LACR			LASI			LCAL			LFAradius			LFAsuperior			LFAulna			LLEL			LMEL			LMT5			LPSI			LTB1			LTB2			LTB3			LTH1			LTH2			LTH3			LTOE			LUA1			LUA2			LUA3			RACR			RASI			RCAL			RFAradius			RFAsuperior			RFAulna			RLEL			RMEL			RMT5			RPSI			RTB1			RTB2			RTB3			RTH1			RTH2			RTH3			RTOE			RUA1			RUA2			RUA3		
		X1	Y1	Z1	X2	Y2	Z2	X3	Y3	Z3	X4	Y4	Z4	X5	Y5	Z5	X6	Y6	Z6	X7	Y7	Z7	X8	Y8	Z8	X9	Y9	Z9	X10	Y10	Z10	X11	Y11	Z11	X12	Y12	Z12	X13	Y13	Z13	X14	Y14	Z14	X15	Y15	Z15	X16	Y16	Z16	X17	Y17	Z17	X18	Y18	Z18	X19	Y19	Z19	X20	Y20	Z20	X21	Y21	Z21	X22	Y22	Z22	X23	Y23	Z23	X24	Y24	Z24	X25	Y25	Z25	X26	Y26	Z26	X27	Y27	Z27	X28	Y28	Z28	X29	Y29	Z29	X30	Y30	Z30	X31	Y31	Z31	X32	Y32	Z32	X33	Y33	Z33	X34	Y34	Z34	X35	Y35	Z35	X36	Y36	Z36	X37	Y37	Z37	X38	Y38	Z38	X39	Y39	Z39	X40	Y40	Z40	X41	Y41	Z41	X42	Y42	Z42

83	0.708333	1.10074	1.53203	-0.341665	1.20011	1.44865	-0.279546	1.1824	1.49856	-0.499679	1.15654	0.99742	-0.427646	0.593683	0.240659	-0.353104	1.2911	1.34981	-0.442272	1.21685	1.24424	-0.579083	1.3369	1.3012	-0.437899	1.1488	1.19907	-0.610612	1.09781	1.18398	-0.554319	0.683251	0.054169	-0.394437	0.993341	1.05889	-0.375719	0.881338	0.40433	-0.383078	0.790119	0.351739	-0.429373	0.756208	0.258499	-0.36163	1.04056	0.842184	-0.486368	1.06992	0.724805	-0.457921	0.950894	0.637356	-0.449565	0.715648	0.0865537	-0.290022	1.17539	1.41554	-0.553222	1.11495	1.3542	-0.55195	1.18753	1.31479	-0.573501	1.10018	1.49661	-0.147545	1.14541	1.02995	-0.195049	1.10759	0.322552	-0.272101	0.899509	1.06766	-0.0275633	0.880279	1.24868	-0.0705042	0.841208	1.0601	-0.0635269	0.851181	1.32311	-0.122979	0.865361	1.30551	-0.185684	1.24904	0.188453	-0.173793	0.983926	1.06252	-0.278837	1.38575	0.544751	-0.237154	1.30572	0.518624	-0.178579	1.28091	0.392095	-0.237889	1.149	0.901073	-0.132374	1.30604	0.845463	-0.163821	1.31794	0.742529	-0.175201	1.28774	0.211422	-0.274521	1.04202	1.4453	-0.109797	1.01198	1.36482	-0.115459	0.936858	1.39832	-0.143594
84	0.716667	1.10089	1.53845	-0.341291	1.19874	1.4559	-0.277047	1.18501	1.50749	-0.496411	1.16116	1.00061	-0.425823	0.581895	0.262157	-0.359058	1.28457	1.36704	-0.439034	1.21998	1.25536	-0.576216	1.33189	1.32007	-0.430823	1.15379	1.20764	-0.608549	1.10105	1.19293	-0.553652	0.651816	0.0652682	-0.395653	0.998744	1.06586	-0.380506	0.863681	0.418979	-0.384675	0.77281	0.366029	-0.432478	0.73855	0.271698	-0.365035	1.04059	0.84862	-0.489199	1.06293	0.730621	-0.4565	0.939212	0.650524	-0.449352	0.685557	0.0957558	-0.292529	1.17897	1.42552	-0.550843	1.11724	1.36446	-0.550327	1.19139	1.32473	-0.571723	1.09685	1.50309	-0.147599	1.14711	1.0382	-0.195868	1.145	0.295517	-0.270861	0.895815	1.07727	-0.0304339	0.875145	1.25817	-0.0740393	0.838121	1.06883	-0.0672027	0.846836	1.33228	-0.126746	0.861618	1.31547	-0.189521	1.30122	0.175387	-0.177916	0.986575	1.07057	-0.283493	1.39702	0.546865	-0.237222	1.32082	0.512214	-0.177527	1.30966	0.383349	-0.237469	1.15115	0.913386	-0.134043	1.30451	0.850296	-0.165269	1.31396	0.746403	-0.177519	1.33617	0.205083	-0.27776	1.03803	1.45336	-0.110739	1.00763	1.37278	-0.116566	0.933192	1.4073	-0.145749
85	0.725	1.10111	1.54397	-0.341029	1.1975	1.46194	-0.274862	1.18729	1.51527	-0.49338	1.1647	1.00377	-0.424763	0.570292	0.28414	-0.365392	1.27802	1.3816	-0.436873	1.22255	1.26464	-0.574187	1.32614	1.33595	-0.425732	1.15769	1.21534	-0.607295	1.10326	1.20116	-0.553889	0.622738	0.0796302	-0.396147	1.00373	1.07255	-0.385399	0.849185	0.433049	-0.384704	0.758884	0.380093	-0.434563	0.721618	0.28586	-0.367238	1.04052	0.854644	-0.492318	1.05667	0.736903	-0.455972	0.92858	0.664151	-0.447163	0.656513	0.108805	-0.294393	1.18181	1.43448	-0.548741	1.11886	1.3735	-0.547995	1.19444	1.33363	-0.570815	1.094	1.5087	-0.147452	1.14866	1.04491	-0.196973	1.18315	0.270954	-0.26987	0.892937	1.08605	-0.0333853	0.870431	1.26686	-0.0774405	0.835633	1.07675	-0.0706766	0.842805	1.3406	-0.130223	0.858067	1.32473	-0.193007	1.35242	0.165808	-0.182239	0.98926	1.07843	-0.288088	1.40677	0.547714	-0.236711	1.33553	0.505098	-0.176432	1.33748	0.375676	-0.237367	1.15279	0.923594	-0.136382	1.30195	0.852258	-0.166539	1.30909	0.747635	-0.179712	1.38265	0.20158	-0.281404	1.03456	1.46056	-0.111659	1.0036	1.37983	-0.117743	0.929804	1.41564	-0.147579
86	0.733333	1.10141	1.54866	-0.340788	1.19654	1.46684	-0.272934	1.18927	1.5218	-0.490881	1.16708	1.00713	-0.424587	0.55733	0.306507	-0.371935	1.27193	1.39306	-0.435434	1.22459	1.27193	-0.572934	1.32029	1.34838	-0.421886	1.16045	1.22214	-0.606837	1.10443	1.20864	-0.555037	0.595235	0.0969231	-0.396023	1.00785	1.07885	-0.390056	0.837335	0.445489	-0.383114	0.747716	0.393365	-0.435537	0.704789	0.300842	-0.368325	1.04037	0.860217	-0.495212	1.05167	0.743425	-0.45658	0.920406	0.676654	-0.444261	0.627793	0.125716	-0.295263	1.18396	1.44213	-0.547039	1.12025	1.38106	-0.545662	1.19679	1.34127	-0.570663	1.09156	1.51334	-0.147196	1.15004	1.0501	-0.198258	1.22134	0.249374	-0.269602	0.890797	1.09388	-0.0363616	0.866208	1.27462	-0.0807206	0.833712	1.08377	-0.0738379	0.839091	1.3479	-0.133532	0.854763	1.33307	-0.196237	1.40147	0.15915	-0.186448	0.991935	1.08576	-0.292367	1.41475	0.547204	-0.235901	1.34949	0.497439	-0.175445	1.36402	0.369121	-0.237798	1.15353	0.930197	-0.139029	1.29885	0.851617	-0.167663	1.30399	0.746561	-0.181307	1.42655	0.200307	-0.285188	1.03165	1.46678	-0.112519	0.999974	1.38585	-0.118918	0.926694	1.42317	-0.149096
87	0.741667	1.10175	1.5526	-0.340382	1.19594	1.47078	-0.271184	1.19103	1.52706	-0.489072	1.16852	1.01082	-0.425111	0.542716	0.329343	-0.378575	1.2668	1.40108	-0.434171	1.22603	1.27733	-0.572295	1.3151	1.35695	-0.418584	1.162	1.2281	-0.607141	1.1046	1.21539	-0.557014	0.568856	0.116832	-0.395519	1.01072	1.08458	-0.393877	0.827444	0.455695	-0.380424	0.73835	0.405551	-0.43556	0.687936	0.316443	-0.368628	1.04017	0.865656	-0.497448	1.04857	0.749637	-0.457978	0.916014	0.686222	-0.442126	0.599276	0.146294	-0.295093	1.18556	1.44829	-0.545842	1.12158	1.38715	-0.544012	1.19849	1.3476	-0.571038	1.08947	1.51696	-0.146867	1.1513	1.05396	-0.199548	1.25871	0.231244	-0.27025	0.889337	1.10059	-0.039355	0.862552	1.28131	-0.0838731	0.832326	1.08976	-0.0766619	0.835789	1.35405	-0.136737	0.851829	1.34026	-0.19926	1.44715	0.154734	-0.190518	0.994433	1.09218	-0.29586	1.42068	0.54533	-0.23517	1.36217	0.489572	-0.174668	1.38875	0.363676	-0.238809	1.15304	0.9324	-0.141647	1.29587	0.848838	-0.168706	1.29919	0.743571	-0.182001	1.46724	0.200655	-0.28885	1.02927	1.4719	-0.113237	0.996814	1.39076	-0.120048	0.92388	1.42974	-0.15034
88	0.75	1.10207	1.55588	-0.339585	1.19573	1.47395	-0.269561	1.19258	1.53112	-0.487919	1.16937	1.01485	-0.426	0.52746	0.352944	-0.385161	1.26311	1.40549	-0.432537	1.22666	1.28108	-0.572034	1.31117	1.3614	-0.415454	1.16233	1.23333	-0.608135	1.1038	1.22145	-0.559648	0.543421	0.13913	-0.39476	1.01225	1.08955	-0.396258	0.818992	0.463774	-0.377442	0.729966	0.416878	-0.435055	0.671433	0.332598	-0.368609	1.04006	0.871286	-0.498915	1.04788	0.754787	-0.459286	0.915881	0.691712	-0.441507	0.571444	0.170113	-0.294154	1.18682	1.45293	-0.545188	1.12271	1.39203	-0.543425	1.19957	1.35269	-0.571663	1.08775	1.51962	-0.146387	1.15248	1.05664	-0.200788	1.29411	0.216759	-0.271717	0.888516	1.10604	-0.0423175	0.859539	1.28677	-0.0868725	0.831469	1.09459	-0.0792019	0.833055	1.35896	-0.13983	0.849432	1.34611	-0.202069	1.48832	0.1522	-0.194607	0.996552	1.09729	-0.298013	1.42442	0.542242	-0.234883	1.37301	0.481966	-0.174198	1.41098	0.359293	-0.24029	1.15124	0.930594	-0.143994	1.29341	0.844394	-0.169657	1.29481	0.73893	-0.18188	1.50404	0.202274	-0.292119	1.02738	1.47582	-0.113687	0.994201	1.39451	-0.121102	0.921419	1.43515	-0.151334
89	0.758333	1.10229	1.55856	-0.338247	1.19582	1.4765	-0.268066	1.19389	1.53413	-0.487209	1.17003	1.01913	-0.426993	0.5133	0.377697	-0.391371	1.26114	1.40637	-0.430214	1.22627	1.28344	-0.571931	1.30871	1.36165	-0.412378	1.16138	1.23794	-0.609694	1.10195	1.22692	-0.562695	0.518774	0.163608	-0.393649	1.0127	1.0936	-0.396955	0.811916	0.470334	-0.374889	0.722276	0.427931	-0.434553	0.656011	0.349356	-0.368723	1.04044	0.876877	-0.499741	1.04976	0.758266	-0.459538	0.919449	0.693123	-0.442157	0.545145	0.196508	-0.292932	1.18787	1.45617	-0.544997	1.1235	1.39609	-0.54394	1.20006	1.35666	-0.57228	1.08647	1.52146	-0.145627	1.15362	1.05817	-0.202129	1.32619	0.20573	-0.273828	0.888311	1.11017	-0.0451343	0.857267	1.29087	-0.0896745	0.831183	1.09815	-0.0815514	0.831048	1.36256	-0.142744	0.847743	1.35049	-0.204612	1.52395	0.151499	-0.198755	0.998157	1.10079	-0.298532	1.42599	0.538268	-0.235274	1.38147	0.475013	-0.17415	1.42991	0.355909	-0.242011	1.14844	0.926142	-0.145893	1.29136	0.838597	-0.170372	1.29055	0.732755	-0.181349	1.53623	0.205107	-0.29471	1.02591	1.47853	-0.113731	0.992219	1.3971	-0.122032	0.919432	1.43926	-0.152065
90	0.766667	1.10239	1.56063	-0.33639	1.19608	1.47849	-0.26671	1.19492	1.53623	-0.486627	1.17073	1.02344	-0.428022	0.501913	0.403881	-0.396702	1.26093	1.40397	-0.427241	1.22476	1.28458	-0.57189	1.30749	1.35784	-0.409402	1.15908	1.24207	-0.611646	1.09889	1.23199	-0.565885	0.494727	0.190059	-0.392043	1.01254	1.0967	-0.396268	0.806621	0.475909	-0.373215	0.715596	0.43926	-0.434466	0.642505	0.366703	-0.369304	1.0418	0.881446	-0.50003	1.05387	0.759938	-0.458247	0.925552	0.69138	-0.443305	0.521297	0.224682	-0.291992	1.18874	1.45829	-0.545059	1.12394	1.39966	-0.545384	1.19994	1.35955	-0.572701	1.08573	1.52263	-0.144505	1.15476	1.0586	-0.203789	1.35357	0.197681	-0.276575	0.888731	1.11295	-0.0476808	0.85587	1.2935	-0.0922188	0.831567	1.10033	-0.0838118	0.829869	1.36482	-0.14537	0.84691	1.35336	-0.206835	1.55328	0.152428	-0.202698	0.999226	1.10258	-0.297657	1.4256	0.533841	-0.236294	1.38707	0.468779	-0.174626	1.44488	0.353419	-0.243664	1.14522	0.920637	-0.14719	1.28916	0.831603	-0.170607	1.2859	0.725165	-0.180853	1.56307	0.209075	-0.296406	1.02487	1.48013	-0.113273	0.990955	1.39861	-0.122755	0.918075	1.44199	-0.152496
91	0.775	1.10239	1.56209	-0.334205	1.19637	1.47991	-0.265475	1.19563	1.53756	-0.485879	1.17154	1.02748	-0.429152	0.494403	0.431536	-0.400646	1.26225	1.39862	-0.423976	1.22207	1.28466	-0.572031	1.30695	1.35026	-0.406859	1.15532	1.24586	-0.613793	1.09449	1.23688	-0.56898	0.471358	0.218444	-0.390117	1.01219	1.09886	-0.394867	0.803695	0.480566	-0.372626	0.710574	0.451077	-0.43493	0.631621	0.384447	-0.370518	1.04457	0.883762	-0.499747	1.05947	0.760176	-0.455697	0.933038	0.687726	-0.444347	0.500651	0.253889	-0.291824	1.1893	1.45968	-0.545094	1.12413	1.40296	-0.547457	1.19915	1.36141	-0.572833	1.08556	1.52318	-0.143039	1.15585	1.05807	-0.205802	1.37521	0.192008	-0.280119	0.889836	1.11438	-0.049906	0.855503	1.29461	-0.0944398	0.832768	1.10107	-0.0860809	0.829531	1.36578	-0.147577	0.847017	1.35474	-0.208695	1.57583	0.15425	-0.205962	0.999807	1.10277	-0.296095	1.4236	0.529353	-0.237539	1.3895	0.462924	-0.175672	1.45551	0.351597	-0.244942	1.14216	0.915219	-0.147798	1.28611	0.823569	-0.170205	1.28037	0.716492	-0.180653	1.58403	0.213647	-0.297197	1.02429	1.48074	-0.112298	0.990464	1.3991	-0.123179	0.917476	1.4433	-0.152605
